<svg width="139" height="232" viewBox="0 0 139 232" fill="none" xmlns="http://www.w3.org/2000/svg">
<rect x="3" y="3" width="133" height="226" stroke="black" stroke-width="6"/>
<path d="M103.799 163.925C100.175 167.53 95.722 169.332 90.439 169.332C85.156 169.332 80.6857 167.53 77.0282 163.925C73.4046 160.286 71.5928 155.807 71.5928 150.486C71.5928 145.165 73.4046 140.702 77.0282 137.098C80.6857 133.459 85.156 131.639 90.439 131.639C95.722 131.639 100.175 133.459 103.799 137.098C107.456 140.702 109.285 145.165 109.285 150.486C109.285 155.807 107.456 160.286 103.799 163.925ZM84.1908 156.768C85.8502 158.415 87.9329 159.239 90.439 159.239C92.9451 159.239 95.0109 158.415 96.6364 156.768C98.2958 155.086 99.1255 152.992 99.1255 150.486C99.1255 147.98 98.2958 145.903 96.6364 144.255C95.0109 142.573 92.9451 141.732 90.439 141.732C87.9329 141.732 85.8502 142.573 84.1908 144.255C82.5652 145.903 81.7525 147.98 81.7525 150.486C81.7525 152.992 82.5652 155.086 84.1908 156.768Z" fill="#1F2123"/>
<path d="M68.1126 147.242V151.515C68.1126 156.665 66.4505 160.921 63.1265 164.286C59.8368 167.65 55.5018 169.332 50.1217 169.332C44.5017 169.332 39.9098 167.547 36.3459 163.977C32.782 160.372 31 155.892 31 150.537C31 145.182 32.782 140.702 36.3459 137.098C39.9098 133.459 44.3646 131.639 49.7105 131.639C53.0688 131.639 56.1358 132.395 58.9115 133.905C61.7215 135.416 63.9318 137.458 65.5424 140.033L56.804 145.027C55.3648 142.83 53.0688 141.732 49.9161 141.732C47.346 141.732 45.2556 142.556 43.645 144.204C42.0687 145.851 41.2805 147.98 41.2805 150.589C41.2805 153.06 42.0173 155.223 43.4908 157.077C44.9643 158.896 47.2432 159.806 50.3273 159.806C53.8912 159.806 56.2729 158.536 57.4723 155.995H49.8133V147.242H68.1126Z" fill="#1F2123"/>
<path d="M98.8467 84.1895H109.285V120.142H98.8467V84.1895Z" fill="#1F2123"/>
<path d="M84.9404 120.142L79.2313 108.843H76.6597V120.142H66.373V84.1895H80.7743C84.7175 84.1895 87.975 85.3536 90.5466 87.682C93.1183 89.9761 94.4041 93.0236 94.4041 96.8243C94.4041 98.9472 93.9069 100.865 92.9126 102.577C91.9525 104.289 90.5981 105.676 88.8493 106.737L95.9471 120.142H84.9404ZM76.6597 93.6399V100.317H80.5686C81.6658 100.351 82.5231 100.077 83.1403 99.4951C83.7917 98.913 84.1175 98.0912 84.1175 97.0297C84.1175 95.9683 83.7917 95.1465 83.1403 94.5644C82.5231 93.9481 81.6658 93.6399 80.5686 93.6399H76.6597Z" fill="#1F2123"/>
<path d="M45.9481 84.1895C50.9308 84.1895 55.0888 85.9186 58.4221 89.3769C61.7897 92.801 63.4735 97.064 63.4735 102.166C63.4735 107.268 61.7897 111.548 58.4221 115.006C55.0888 118.43 50.9308 120.142 45.9481 120.142H31V84.1895H45.9481ZM45.9481 110.178C48.0443 110.178 49.7625 109.442 51.1026 107.97C52.4772 106.463 53.1644 104.528 53.1644 102.166C53.1644 99.8032 52.4772 97.8858 51.1026 96.4134C49.7625 94.9068 48.0443 94.1535 45.9481 94.1535H41.8245V110.178H45.9481Z" fill="#1F2123"/>
<circle cx="90.439" cy="53.8462" r="18.8462" fill="#FF4535"/>
<path d="M49.5674 72.6924L43.8583 61.393H41.2866V72.6924H31V36.7396H45.4013C49.3445 36.7396 52.6019 37.9038 55.1736 40.2322C57.7452 42.5263 59.0311 45.5737 59.0311 49.3745C59.0311 51.4974 58.5339 53.4149 57.5395 55.1269C56.5794 56.8389 55.225 58.2257 53.4763 59.2872L60.5741 72.6924H49.5674ZM41.2866 46.1901V52.867H45.1956C46.2928 52.9013 47.15 52.6273 47.7672 52.0452C48.4187 51.4631 48.7444 50.6414 48.7444 49.5799C48.7444 48.5184 48.4187 47.6967 47.7672 47.1146C47.15 46.4982 46.2928 46.1901 45.1956 46.1901H41.2866Z" fill="#1F2123"/>
<path d="M107.217 195.75C105.852 197.081 104.174 197.746 102.183 197.746C100.193 197.746 98.5088 197.081 97.1308 195.75C95.7656 194.406 95.083 192.752 95.083 190.788C95.083 188.823 95.7656 187.175 97.1308 185.844C98.5088 184.501 100.193 183.829 102.183 183.829C104.174 183.829 105.852 184.501 107.217 185.844C108.595 187.175 109.284 188.823 109.284 190.788C109.284 192.752 108.595 194.406 107.217 195.75ZM99.8294 193.107C100.455 193.716 101.239 194.02 102.183 194.02C103.128 194.02 103.906 193.716 104.518 193.107C105.144 192.486 105.456 191.713 105.456 190.788C105.456 189.862 105.144 189.095 104.518 188.487C103.906 187.866 103.128 187.555 102.183 187.555C101.239 187.555 100.455 187.866 99.8294 188.487C99.217 189.095 98.9107 189.862 98.9107 190.788C98.9107 191.713 99.217 192.486 99.8294 193.107Z" fill="#1F2123"/>
<path d="M90.1434 197.729L88.019 193.546H87.0621V197.729H83.2344V184.42H88.5932C90.0605 184.42 91.2726 184.851 92.2295 185.713C93.1865 186.562 93.6649 187.69 93.6649 189.097C93.6649 189.883 93.4799 190.593 93.1099 191.227C92.7527 191.86 92.2487 192.374 91.598 192.767L94.2391 197.729H90.1434ZM87.0621 187.918V190.39H88.5166C88.9249 190.403 89.2439 190.301 89.4736 190.086C89.716 189.87 89.8372 189.566 89.8372 189.173C89.8372 188.78 89.716 188.476 89.4736 188.261C89.2439 188.033 88.9249 187.918 88.5166 187.918H87.0621Z" fill="#1F2123"/>
<path d="M76.1725 194.231H81.1485V197.729H72.3447V184.42H81.0528V187.88H76.1725V189.325H80.5744V192.748H76.1725V194.231Z" fill="#1F2123"/>
<path d="M66.2369 194.041H70.6388V197.729H62.4092V184.42H66.2369V194.041Z" fill="#1F2123"/>
<path d="M58.4747 195.75C57.1095 197.081 55.4317 197.746 53.4413 197.746C51.4508 197.746 49.7666 197.081 48.3887 195.75C47.0234 194.406 46.3408 192.752 46.3408 190.788C46.3408 188.823 47.0234 187.175 48.3887 185.844C49.7666 184.501 51.4508 183.829 53.4413 183.829C55.4317 183.829 57.1095 184.501 58.4747 185.844C59.8527 187.175 60.5417 188.823 60.5417 190.788C60.5417 192.752 59.8527 194.406 58.4747 195.75ZM51.0872 193.107C51.7124 193.716 52.4971 194.02 53.4413 194.02C54.3854 194.02 55.1637 193.716 55.7762 193.107C56.4014 192.486 56.714 191.713 56.714 190.788C56.714 189.862 56.4014 189.095 55.7762 188.487C55.1637 187.866 54.3854 187.555 53.4413 187.555C52.4971 187.555 51.7124 187.866 51.0872 188.487C50.4748 189.095 50.1686 189.862 50.1686 190.788C50.1686 191.713 50.4748 192.486 51.0872 193.107Z" fill="#1F2123"/>
<path d="M44.9712 184.42V197.729H41.1435V191.246L38.1579 196.227H37.8134L34.8277 191.246V197.729H31V184.42H34.8277L37.9856 189.839L41.1435 184.42H44.9712Z" fill="#1F2123"/>
</svg>
